<svg xmlns="http://www.w3.org/2000/svg" viewBox="0 0 64 64" width="64" height="64" fill="none">
  <defs>
    <linearGradient id="g" x1="0" y1="0" x2="1" y2="1">
      <stop offset="0%" stop-color="#FF6A00"/>
      <stop offset="100%" stop-color="#EE0979"/>
    </linearGradient>
  </defs>
  <rect x="2" y="8" width="60" height="40" rx="6" fill="url(#g)"/>
  <rect x="6" y="12" width="52" height="32" rx="4" fill="white" opacity="0.15"/>
  <path d="M38 44c6 0 10-3 12-7-3 2-7 1-11-2 3-1 6-3 7-6-2 1-6 0-9-2-6-5-11-11-16-14 4 6 8 11 10 13-3-1-7-4-11-7 2 4 5 8 8 10-2 0-4 0-6-1 3 5 8 8 16 8z" fill="white"/>
  <rect x="14" y="50" width="36" height="6" rx="3" fill="#20232a"/>
  <text x="32" y="55" text-anchor="middle" font-size="7" fill="#fff" font-family="Arial, Helvetica, sans-serif">Swift</text>
</svg>

